<svg xmlns="http://www.w3.org/2000/svg" viewBox="0 0 200 100" width="200" height="100">
  <!-- Rainbow arcs from outer (red) to inner (violet) -->
  <path d="M 10 100 A 90 90 0 0 1 190 100" fill="none" stroke="#FF0000" stroke-width="10"/>
  <path d="M 20 100 A 80 80 0 0 1 180 100" fill="none" stroke="#FF7F00" stroke-width="10"/>
  <path d="M 30 100 A 70 70 0 0 1 170 100" fill="none" stroke="#FFFF00" stroke-width="10"/>
  <path d="M 40 100 A 60 60 0 0 1 160 100" fill="none" stroke="#00FF00" stroke-width="10"/>
  <path d="M 50 100 A 50 50 0 0 1 150 100" fill="none" stroke="#0000FF" stroke-width="10"/>
  <path d="M 60 100 A 40 40 0 0 1 140 100" fill="none" stroke="#4B0082" stroke-width="10"/>
  <path d="M 70 100 A 30 30 0 0 1 130 100" fill="none" stroke="#9400D3" stroke-width="10"/>
</svg>
